# xmcd
#
# Track frame offsets: 
#        150
#        18749
#        36813
#        51332
#        71453
#        87037
#        103004
#        122047
#        141450
#        150195
#
# Disc length: 2449 seconds
#
# Revision: 0
# Processed by: cddbd v1.5.2PL0 Copyright (c) Steve Scherf et al.
# Submitted via: ExactAudioCopy v0.95b4
#
DISCID=81098f0a
DTITLE=Joe Ely - Silver City
DYEAR=2007
DGENRE=Country
TTITLE0=Silver City
TTITLE1=Santa Rosa - Saint Augustine
TTITLE2=Indian Cowboy
TTITLE3=Wounded Knee
TTITLE4=Cloister Mountain
TTITLE5=Time For Travelin'
TTITLE6=I know Will Never be Mine
TTITLE7=Drivin' 'Cross Russia
TTITLE8=Windy Windy Windy
TTITLE9=Billy Boy
EXTD=
EXTT0=
EXTT1=
EXTT2=
EXTT3=
EXTT4=
EXTT5=
EXTT6=
EXTT7=
EXTT8=
EXTT9=
PLAYORDER=
